<svg width="791.6724365234375px" height="122.02138671875px" xmlns="http://www.w3.org/2000/svg" viewBox="-145.83621826171873 13.989306640625003 791.6724365234375 122.02138671875" style="background:#b55500" preserveAspectRatio="xMidYMid"><defs><filter id="editing-cake" x="-100%" y="-100%" width="300%" height="300%"><feFlood flood-color="#2d1500" result="flood-shadow"></feFlood><feFlood flood-color="#894619"></feFlood><feComposite operator="in" in2="SourceAlpha"></feComposite><feConvolveMatrix order="7,10" divisor="1" result="conv" kernelMatrix="0 0 0 1 0 0 0 0 0 1 0 1 0 0 0 0 1 0 1 0 0 0 1 0 0 0 1 0 0 1 0 0 0 1 0 0 1 0 0 0 1 0 1 0 0 0 0 0 1 1 0 0 0 0 0 1 0 1 1 0 1 1 0 0 0 0 1 0 0 0 "></feConvolveMatrix><feGaussianBlur stdDeviation="0.5"></feGaussianBlur><feOffset dy="4" result="offset"></feOffset><feComposite operator="in" in="flood-shadow" in2="offset"></feComposite><feGaussianBlur stdDeviation="4"></feGaussianBlur><feComponentTransfer><feFuncA type="linear" slope="0.7" intercept="-0.2"></feFuncA></feComponentTransfer><feOffset dy="4" result="shadow"></feOffset><feGaussianBlur in="SourceGraphic" stdDeviation="0.5"></feGaussianBlur><feOffset dy="0" result="x0"></feOffset><feGaussianBlur in="SourceGraphic" stdDeviation="1"></feGaussianBlur><feComponentTransfer><feFuncA type="linear" slope="0.8" intercept="-.01"></feFuncA></feComponentTransfer><feOffset dy="1" result="x1"></feOffset><feGaussianBlur in="SourceGraphic" stdDeviation="2"></feGaussianBlur><feComponentTransfer><feFuncA type="linear" slope="0.7" intercept="-.01"></feFuncA></feComponentTransfer><feOffset dy="2" result="x2"></feOffset><feGaussianBlur in="SourceGraphic" stdDeviation="3"></feGaussianBlur><feComponentTransfer><feFuncA type="linear" slope="0.6" intercept="-.01"></feFuncA></feComponentTransfer><feOffset dy="3" result="x3"></feOffset><feMerge><feMergeNode in="shadow"></feMergeNode><feMergeNode in="offset"></feMergeNode><feMergeNode in="x3"></feMergeNode><feMergeNode in="x2"></feMergeNode><feMergeNode in="x1"></feMergeNode><feMergeNode in="x0"></feMergeNode></feMerge></filter></defs><g filter="url(#editing-cake)"><g transform="translate(-33.39500734210014, 98.67218780517578)"><path d="M26.11-42.69L26.11-42.69L26.11-42.69Q41.79-42.69 41.79-31.62L41.79-31.62L41.79-31.62Q41.79-25.54 37.89-21.89L37.89-21.89L37.89-21.89Q34.05-18.24 27.33-18.24L27.33-18.24L27.33-18.24Q24.19-18.24 21.76-20.03L21.76-20.03L21.76-20.03Q20.61-20.80 19.84-21.82L19.84-21.82L19.84-21.82Q24.51-21.82 26.98-24.67L26.98-24.67L26.98-24.67Q29.44-27.52 29.44-33.09L29.44-33.09L29.44-33.09Q29.44-38.66 23.94-38.66L23.94-38.66L22.40-38.66L22.40-38.66Q22.02-38.66 21.70-38.59L21.70-38.59L14.34 0L0.45 0L8.32-41.92L8.32-41.92Q15.17-42.56 19.14-42.62L19.14-42.62L19.14-42.62Q23.10-42.69 26.11-42.69ZM57.41-3.52L57.41-3.52L57.41-3.52Q55.42 1.28 49.09 1.28L49.09 1.28L49.09 1.28Q45.89 1.28 43.84-0.96L43.84-0.96L43.84-0.96Q42.18-2.82 42.18-4.93L42.18-4.93L42.18-4.93Q42.18-9.73 44.42-20.22L44.42-20.22L49.09-44.80L62.08-46.08L55.87-13.70L55.87-13.70Q54.78-8.96 54.78-7.30L54.78-7.30L54.78-7.30Q54.78-3.65 57.41-3.52ZM65.63-1.92L65.63-1.92L65.63-1.92Q64.13-3.58 63.46-6.21L63.46-6.21L63.46-6.21Q62.78-8.83 62.78-13.12L62.78-13.12L62.78-13.12Q62.78-17.41 64.26-21.31L64.26-21.31L64.26-21.31Q65.73-25.22 68.42-28.03L68.42-28.03L68.42-28.03Q73.92-33.92 83.01-33.92L83.01-33.92L83.01-33.92Q86.27-33.92 88.64-32.83L88.64-32.83L99.58-33.92L94.85-8.96L94.85-8.96Q94.66-8.19 94.66-6.78L94.66-6.78L94.66-6.78Q94.66-5.38 95.52-4.48L95.52-4.48L95.52-4.48Q96.38-3.58 97.66-3.46L97.66-3.46L97.66-3.46Q97.02-1.28 94.69 0L94.69 0L94.69 0Q92.35 1.28 89.73 1.28L89.73 1.28L89.73 1.28Q87.10 1.28 85.34 0.29L85.34 0.29L85.34 0.29Q83.58-0.70 83.07-2.37L83.07-2.37L83.07-2.37Q82.05-0.77 79.87 0.26L79.87 0.26L79.87 0.26Q77.70 1.28 74.78 1.28L74.78 1.28L74.78 1.28Q71.87 1.28 69.50 0.51L69.50 0.51L69.50 0.51Q67.14-0.26 65.63-1.92ZM79.14-27.90L79.14-27.90L79.14-27.90Q78.40-26.75 77.76-24.80L77.76-24.80L77.76-24.80Q77.12-22.85 76.06-17.63L76.06-17.63L76.06-17.63Q75.01-12.42 75.01-8.70L75.01-8.70L75.01-8.70Q75.01-4.99 75.58-3.90L75.58-3.90L75.58-3.90Q76.16-2.82 77.18-2.82L77.18-2.82L77.18-2.82Q79.23-2.82 80.74-4.77L80.74-4.77L80.74-4.77Q82.24-6.72 82.82-10.18L82.82-10.18L86.21-28.93L86.21-28.93Q84.86-30.08 83.30-30.08L83.30-30.08L83.30-30.08Q81.73-30.08 80.80-29.57L80.80-29.57L80.80-29.57Q79.87-29.06 79.14-27.90ZM134.21-26.62L134.21-26.62L134.21-26.62Q134.21-23.94 131.97-22.27L131.97-22.27L131.97-22.27Q129.73-20.61 126.08-20.61L126.08-20.61L126.08-20.61Q124.54-20.61 123.65-21.06L123.65-21.06L123.65-21.06Q124.35-22.72 124.58-24.80L124.58-24.80L124.58-24.80Q124.80-26.88 124.80-27.46L124.80-27.46L124.80-27.46Q124.80-30.14 122.94-30.14L122.94-30.14L122.94-30.14Q121.66-30.14 120.22-28.54L120.22-28.54L120.22-28.54Q118.78-26.94 117.57-24.45L117.57-24.45L117.57-24.45Q114.88-18.69 114.88-12.86L114.88-12.86L114.88-12.86Q114.88-9.66 116.10-8.22L116.10-8.22L116.10-8.22Q117.31-6.78 120-6.78L120-6.78L120-6.78Q123.71-6.78 126.66-9.86L126.66-9.86L126.66-9.86Q127.49-10.82 127.94-11.90L127.94-11.90L127.94-11.90Q130.37-10.62 130.37-7.10L130.37-7.10L130.37-7.10Q130.37-3.52 126.40-1.15L126.40-1.15L126.40-1.15Q122.30 1.28 115.78 1.28L115.78 1.28L115.78 1.28Q102.78 1.28 102.78-12.48L102.78-12.48L102.78-12.48Q102.78-22.53 108.48-28.29L108.48-28.29L108.48-28.29Q113.98-33.92 124.10-33.92L124.10-33.92L124.10-33.92Q134.21-33.92 134.21-26.62ZM161.86-10.82L161.86-10.82L161.86-10.82Q163.46-9.73 163.46-7.33L163.46-7.33L163.46-7.33Q163.46-4.93 162.24-3.39L162.24-3.39L162.24-3.39Q161.02-1.86 159.04-0.83L159.04-0.83L159.04-0.83Q154.94 1.28 150.53 1.28L150.53 1.28L150.53 1.28Q146.11 1.28 143.52 0.32L143.52 0.32L143.52 0.32Q140.93-0.64 139.20-2.43L139.20-2.43L139.20-2.43Q135.81-5.82 135.81-12.03L135.81-12.03L135.81-12.03Q135.81-21.70 141.06-27.58L141.06-27.58L141.06-27.58Q146.69-33.92 156.48-33.92L156.48-33.92L156.48-33.92Q162.56-33.92 165.57-31.36L165.57-31.36L165.57-31.36Q167.81-29.44 167.81-26.30L167.81-26.30L167.81-26.30Q167.81-15.04 148.35-15.04L148.35-15.04L148.35-15.04Q148.10-13.38 148.10-11.97L148.10-11.97L148.10-11.97Q148.10-9.02 149.41-7.90L149.41-7.90L149.41-7.90Q150.72-6.78 153.15-6.78L153.15-6.78L153.15-6.78Q155.58-6.78 158.18-7.90L158.18-7.90L158.18-7.90Q160.77-9.02 161.86-10.82ZM148.80-17.79L148.80-17.79L148.80-17.79Q153.34-17.79 155.97-20.61L155.97-20.61L155.97-20.61Q158.59-23.30 158.59-27.58L158.59-27.58L158.59-27.58Q158.59-29.06 158.05-29.86L158.05-29.86L158.05-29.86Q157.50-30.66 156.42-30.66L156.42-30.66L156.42-30.66Q155.33-30.66 154.40-30.24L154.40-30.24L154.40-30.24Q153.47-29.82 152.51-28.42L152.51-28.42L152.51-28.42Q150.14-25.22 148.80-17.79ZM216.58-13.25L216.58-13.25L216.58-13.25Q218.24-12.03 218.24-9.44L218.24-9.44L218.24-9.44Q218.24-6.85 217.12-5.02L217.12-5.02L217.12-5.02Q216-3.20 213.82-1.79L213.82-1.79L213.82-1.79Q209.15 1.22 200.99 1.22L200.99 1.22L200.99 1.22Q192.83 1.22 188.38-3.04L188.38-3.04L188.38-3.04Q183.94-7.30 183.94-14.85L183.94-14.85L183.94-14.85Q183.94-25.54 189.50-33.66L189.50-33.66L189.50-33.66Q193.73-39.68 201.28-42.24L201.28-42.24L201.28-42.24Q205.18-43.52 209.02-43.52L209.02-43.52L209.02-43.52Q212.86-43.52 215.23-43.01L215.23-43.01L215.23-43.01Q217.60-42.50 219.39-41.47L219.39-41.47L219.39-41.47Q223.30-39.23 223.30-35.65L223.30-35.65L223.30-35.65Q223.30-32.38 220.22-29.95L220.22-29.95L220.22-29.95Q217.41-27.78 215.10-27.78L215.10-27.78L215.10-27.78Q212.80-27.78 211.84-28.10L211.84-28.10L211.84-28.10Q212.10-30.40 212.10-31.90L212.10-31.90L212.10-31.90Q212.10-33.41 212.03-34.50L212.03-34.50L212.03-34.50Q211.97-35.58 211.65-36.61L211.65-36.61L211.65-36.61Q211.01-38.98 209.06-38.98L209.06-38.98L209.06-38.98Q207.10-38.98 205.15-37.15L205.15-37.15L205.15-37.15Q203.20-35.33 201.54-32.26L201.54-32.26L201.54-32.26Q197.76-25.28 197.76-17.02L197.76-17.02L197.76-17.02Q197.76-13.06 200-10.78L200-10.78L200-10.78Q202.24-8.51 207.04-8.51L207.04-8.51L207.04-8.51Q210.62-8.51 214.02-10.88L214.02-10.88L214.02-10.88Q215.49-11.90 216.58-13.25ZM226.34-1.92L226.34-1.92L226.34-1.92Q224.83-3.58 224.16-6.21L224.16-6.21L224.16-6.21Q223.49-8.83 223.49-13.12L223.49-13.12L223.49-13.12Q223.49-17.41 224.96-21.31L224.96-21.31L224.96-21.31Q226.43-25.22 229.12-28.03L229.12-28.03L229.12-28.03Q234.62-33.92 243.71-33.92L243.71-33.92L243.71-33.92Q246.98-33.92 249.34-32.83L249.34-32.83L260.29-33.92L255.55-8.96L255.55-8.96Q255.36-8.19 255.36-6.78L255.36-6.78L255.36-6.78Q255.36-5.38 256.22-4.48L256.22-4.48L256.22-4.48Q257.09-3.58 258.37-3.46L258.37-3.46L258.37-3.46Q257.73-1.28 255.39 0L255.39 0L255.39 0Q253.06 1.28 250.43 1.28L250.43 1.28L250.43 1.28Q247.81 1.28 246.05 0.29L246.05 0.29L246.05 0.29Q244.29-0.70 243.78-2.37L243.78-2.37L243.78-2.37Q242.75-0.77 240.58 0.26L240.58 0.26L240.58 0.26Q238.40 1.28 235.49 1.28L235.49 1.28L235.49 1.28Q232.58 1.28 230.21 0.51L230.21 0.51L230.21 0.51Q227.84-0.26 226.34-1.92ZM239.84-27.90L239.84-27.90L239.84-27.90Q239.10-26.75 238.46-24.80L238.46-24.80L238.46-24.80Q237.82-22.85 236.77-17.63L236.77-17.63L236.77-17.63Q235.71-12.42 235.71-8.70L235.71-8.70L235.71-8.70Q235.71-4.99 236.29-3.90L236.29-3.90L236.29-3.90Q236.86-2.82 237.89-2.82L237.89-2.82L237.89-2.82Q239.94-2.82 241.44-4.77L241.44-4.77L241.44-4.77Q242.94-6.72 243.52-10.18L243.52-10.18L246.91-28.93L246.91-28.93Q245.57-30.08 244-30.08L244-30.08L244-30.08Q242.43-30.08 241.50-29.57L241.50-29.57L241.50-29.57Q240.58-29.06 239.84-27.90ZM279.04-3.52L279.04-3.52L279.04-3.52Q277.06 1.28 270.72 1.28L270.72 1.28L270.72 1.28Q267.52 1.28 265.47-0.96L265.47-0.96L265.47-0.96Q263.81-2.82 263.81-4.93L263.81-4.93L263.81-4.93Q263.81-9.73 266.05-20.22L266.05-20.22L270.72-44.80L283.71-46.08L277.50-13.70L277.50-13.70Q276.42-8.96 276.42-7.30L276.42-7.30L276.42-7.30Q276.42-3.65 279.04-3.52ZM299.78-3.52L299.78-3.52L299.78-3.52Q297.79 1.28 291.46 1.28L291.46 1.28L291.46 1.28Q288.26 1.28 286.21-0.96L286.21-0.96L286.21-0.96Q284.54-2.82 284.54-4.93L284.54-4.93L284.54-4.93Q284.54-9.73 286.78-20.22L286.78-20.22L291.46-44.80L304.45-46.08L298.24-13.70L298.24-13.70Q297.15-8.96 297.15-7.30L297.15-7.30L297.15-7.30Q297.15-3.65 299.78-3.52ZM331.14-10.82L331.14-10.82L331.14-10.82Q332.74-9.73 332.74-7.33L332.74-7.33L332.74-7.33Q332.74-4.93 331.52-3.39L331.52-3.39L331.52-3.39Q330.30-1.86 328.32-0.83L328.32-0.83L328.32-0.83Q324.22 1.28 319.81 1.28L319.81 1.28L319.81 1.28Q315.39 1.28 312.80 0.32L312.80 0.32L312.80 0.32Q310.21-0.64 308.48-2.43L308.48-2.43L308.48-2.43Q305.09-5.82 305.09-12.03L305.09-12.03L305.09-12.03Q305.09-21.70 310.34-27.58L310.34-27.58L310.34-27.58Q315.97-33.92 325.76-33.92L325.76-33.92L325.76-33.92Q331.84-33.92 334.85-31.36L334.85-31.36L334.85-31.36Q337.09-29.44 337.09-26.30L337.09-26.30L337.09-26.30Q337.09-15.04 317.63-15.04L317.63-15.04L317.63-15.04Q317.38-13.38 317.38-11.97L317.38-11.97L317.38-11.97Q317.38-9.02 318.69-7.90L318.69-7.90L318.69-7.90Q320-6.78 322.43-6.78L322.43-6.78L322.43-6.78Q324.86-6.78 327.46-7.90L327.46-7.90L327.46-7.90Q330.05-9.02 331.14-10.82ZM318.08-17.79L318.08-17.79L318.08-17.79Q322.62-17.79 325.25-20.61L325.25-20.61L325.25-20.61Q327.87-23.30 327.87-27.58L327.87-27.58L327.87-27.58Q327.87-29.06 327.33-29.86L327.33-29.86L327.33-29.86Q326.78-30.66 325.70-30.66L325.70-30.66L325.70-30.66Q324.61-30.66 323.68-30.24L323.68-30.24L323.68-30.24Q322.75-29.82 321.79-28.42L321.79-28.42L321.79-28.42Q319.42-25.22 318.08-17.79ZM359.42-33.92L359.42-33.92L359.42-33.92Q361.73-33.92 363.52-33.41L363.52-33.41L363.52-33.41Q363.58-33.66 363.71-34.37L363.71-34.37L364.03-36.35L364.03-36.35Q364.29-37.63 364.67-39.74L364.67-39.74L365.70-44.80L378.43-46.08L371.33-8.96L371.33-8.96Q371.26-8.58 371.26-7.94L371.26-7.94L371.26-6.91L371.26-6.91Q371.26-5.50 371.97-4.45L371.97-4.45L371.97-4.45Q372.67-3.39 373.82-3.39L373.82-3.39L373.82-3.39Q372.54-0.38 368.64 0.90L368.64 0.90L368.64 0.90Q367.30 1.28 365.41 1.28L365.41 1.28L365.41 1.28Q363.52 1.28 361.79 0.29L361.79 0.29L361.79 0.29Q360.06-0.70 359.55-2.37L359.55-2.37L359.55-2.37Q358.53-0.70 356.48 0.29L356.48 0.29L356.48 0.29Q354.43 1.28 351.46 1.28L351.46 1.28L351.46 1.28Q348.48 1.28 346.02 0.51L346.02 0.51L346.02 0.51Q343.55-0.26 342.02-1.92L342.02-1.92L342.02-1.92Q339.20-5.18 339.20-12.61L339.20-12.61L339.20-12.61Q339.20-22.21 344.83-28.03L344.83-28.03L344.83-28.03Q350.46-33.92 359.42-33.92ZM358.98-30.08L358.98-30.08L358.98-30.08Q356.61-30.08 355.33-27.52L355.33-27.52L355.33-27.52Q354.05-24.96 352.74-18.62L352.74-18.62L352.74-18.62Q351.42-12.29 351.42-6.59L351.42-6.59L351.42-6.59Q351.42-2.69 353.73-2.69L353.73-2.69L353.73-2.69Q355.78-2.69 357.22-4.74L357.22-4.74L357.22-4.74Q358.66-6.78 359.23-10.18L359.23-10.18L362.69-28.93L362.69-28.93Q361.34-30.08 358.98-30.08ZM416.32-4.80L416.32-4.80L416.32-4.80Q416.32-9.28 418.11-18.24L418.11-18.24L408.64-18.24L405.12 0L391.74 0L399.87-42.24L413.38-42.24L409.66-23.36L419.14-23.36L422.66-42.24L436.16-42.24L436.16-42.24Q435.26-37.50 434.11-32.19L434.11-32.19L431.94-21.76L431.94-21.76Q429.50-9.60 429.50-4.29L429.50-4.29L429.50-4.29Q429.50-2.11 430.21-0.90L430.21-0.90L430.21-0.90Q427.01 1.28 423.26 1.28L423.26 1.28L423.26 1.28Q419.52 1.28 417.92-0.51L417.92-0.51L417.92-0.51Q416.32-2.30 416.32-4.80ZM451.65 1.28L451.65 1.28L451.65 1.28Q437.57 1.28 437.57-11.97L437.57-11.97L437.57-11.97Q437.57-21.38 442.75-27.46L442.75-27.46L442.75-27.46Q448.26-33.92 457.79-33.92L457.79-33.92L457.79-33.92Q464.70-33.92 468.22-30.72L468.22-30.72L468.22-30.72Q471.74-27.52 471.74-20.80L471.74-20.80L471.74-20.80Q471.74-10.56 466.24-4.61L466.24-4.61L466.24-4.61Q460.86 1.28 451.65 1.28ZM453.31-26.56L453.31-26.56L453.31-26.56Q452.54-24.83 451.94-22.24L451.94-22.24L451.94-22.24Q451.33-19.65 450.56-15.55L450.56-15.55L450.56-15.55Q449.79-11.46 449.79-6.40L449.79-6.40L449.79-6.40Q449.79-4.74 450.34-3.65L450.34-3.65L450.34-3.65Q450.88-2.56 452.35-2.56L452.35-2.56L452.35-2.56Q453.82-2.56 454.75-3.26L454.75-3.26L454.75-3.26Q455.68-3.97 456.38-5.63L456.38-5.63L456.38-5.63Q457.66-8.58 458.69-14.05L458.69-14.05L458.69-14.05Q459.71-19.52 459.81-21.89L459.81-21.89L459.81-21.89Q459.90-24.26 459.90-26.02L459.90-26.02L459.90-26.02Q459.90-27.78 459.39-28.93L459.39-28.93L459.39-28.93Q458.88-30.08 457.44-30.08L457.44-30.08L457.44-30.08Q456-30.08 455.04-29.18L455.04-29.18L455.04-29.18Q454.08-28.29 453.31-26.56ZM521.60 1.28L521.60 1.28L521.60 1.28Q513.86 1.28 513.86-4.74L513.86-4.74L513.86-4.74Q513.86-7.36 514.98-12.45L514.98-12.45L514.98-12.45Q516.10-17.54 516.48-19.58L516.48-19.58L516.48-19.58Q517.38-24.26 517.38-25.73L517.38-25.73L517.38-25.73Q517.38-28.99 514.94-28.99L514.94-28.99L514.94-28.99Q513.34-28.99 511.81-26.78L511.81-26.78L511.81-26.78Q510.27-24.58 509.57-20.16L509.57-20.16L505.60 0L493.12 1.28L496.58-16.13L496.58-16.13Q497.15-19.01 497.66-22.27L497.66-22.27L497.66-22.27Q498.18-25.54 498.18-26.05L498.18-26.05L498.18-26.05Q498.18-28.99 496-28.99L496-28.99L496-28.99Q494.53-28.99 492.93-26.82L492.93-26.82L492.93-26.82Q491.33-24.64 490.43-20.16L490.43-20.16L486.53 0L473.92 1.28L480.64-32.64L491.07-33.92L489.98-27.46L489.98-27.46Q491.65-30.91 494.72-32.42L494.72-32.42L494.72-32.42Q497.79-33.92 502.59-33.92L502.59-33.92L502.59-33.92Q505.34-33.92 507.14-32.58L507.14-32.58L507.14-32.58Q508.93-31.23 509.50-29.06L509.50-29.06L509.50-29.06Q510.59-31.30 513.38-32.61L513.38-32.61L513.38-32.61Q516.16-33.92 519.58-33.92L519.58-33.92L519.58-33.92Q523.01-33.92 524.70-33.18L524.70-33.18L524.70-33.18Q526.40-32.45 527.42-31.23L527.42-31.23L527.42-31.23Q529.15-28.99 529.15-24.90L529.15-24.90L529.15-24.90Q529.15-20.86 527.42-12.48L527.42-12.48L527.42-12.48Q526.53-8.38 526.53-6.88L526.53-6.88L526.53-6.88Q526.53-5.38 527.39-4.48L527.39-4.48L527.39-4.48Q528.26-3.58 529.54-3.46L529.54-3.46L529.54-3.46Q528.90-1.28 526.69 0L526.69 0L526.69 0Q524.48 1.28 521.60 1.28ZM560.38-10.82L560.38-10.82L560.38-10.82Q561.98-9.73 561.98-7.33L561.98-7.33L561.98-7.33Q561.98-4.93 560.77-3.39L560.77-3.39L560.77-3.39Q559.55-1.86 557.57-0.83L557.57-0.83L557.57-0.83Q553.47 1.28 549.06 1.28L549.06 1.28L549.06 1.28Q544.64 1.28 542.05 0.32L542.05 0.32L542.05 0.32Q539.46-0.64 537.73-2.43L537.73-2.43L537.73-2.43Q534.34-5.82 534.34-12.03L534.34-12.03L534.34-12.03Q534.34-21.70 539.58-27.58L539.58-27.58L539.58-27.58Q545.22-33.92 555.01-33.92L555.01-33.92L555.01-33.92Q561.09-33.92 564.10-31.36L564.10-31.36L564.10-31.36Q566.34-29.44 566.34-26.30L566.34-26.30L566.34-26.30Q566.34-15.04 546.88-15.04L546.88-15.04L546.88-15.04Q546.62-13.38 546.62-11.97L546.62-11.97L546.62-11.97Q546.62-9.02 547.94-7.90L547.94-7.90L547.94-7.90Q549.25-6.78 551.68-6.78L551.68-6.78L551.68-6.78Q554.11-6.78 556.70-7.90L556.70-7.90L556.70-7.90Q559.30-9.02 560.38-10.82ZM547.33-17.79L547.33-17.79L547.33-17.79Q551.87-17.79 554.50-20.61L554.50-20.61L554.50-20.61Q557.12-23.30 557.12-27.58L557.12-27.58L557.12-27.58Q557.12-29.06 556.58-29.86L556.58-29.86L556.58-29.86Q556.03-30.66 554.94-30.66L554.94-30.66L554.94-30.66Q553.86-30.66 552.93-30.24L552.93-30.24L552.93-30.24Q552-29.82 551.04-28.42L551.04-28.42L551.04-28.42Q548.67-25.22 547.33-17.79Z" fill="#ffd800"></path></g></g><style>text {
  font-size: 64px;
  font-family: Arial Black;
  dominant-baseline: central;
  text-anchor: middle;
}</style></svg>